<svg width="224" height="26" viewBox="0 0 224 26" fill="none" xmlns="http://www.w3.org/2000/svg">
<path d="M12.974 20.598C12.3153 20.7193 11.4573 20.78 10.4 20.78C9.672 20.78 9.14333 20.7887 8.814 20.806L8.736 20.26C8.528 20.26 8.38067 20.2687 8.294 20.286C8.17267 19.3673 8.09467 18.0413 8.06 16.308C8.02533 15.0427 7.982 14.1067 7.93 13.5C7.54867 13.4653 7.31467 13.448 7.228 13.448C6.72533 13.448 6.266 13.4913 5.85 13.578C5.83267 13.838 5.824 14.2627 5.824 14.852L5.85 16.412C5.86733 16.7587 5.876 17.27 5.876 17.946C5.876 19.038 5.81533 19.8873 5.694 20.494C5.382 20.6847 4.95733 20.78 4.42 20.78C4.212 20.78 3.9 20.7627 3.484 20.728C3.068 20.6933 2.79067 20.676 2.652 20.676C2.34 20.676 2.01933 20.7627 1.69 20.936L1.638 20.208C1.482 20.2427 1.326 20.312 1.17 20.416C1.066 19.1853 0.970667 16.932 0.884 13.656C0.797333 10.3627 0.754 7.35533 0.754 4.634C0.754 3.16067 0.762667 2.14667 0.78 1.592L1.17 1.566C1.41267 1.618 1.64667 1.644 1.872 1.644C2.04533 1.644 2.34 1.62667 2.756 1.592C3.24133 1.55733 3.62267 1.54 3.9 1.54C4.108 1.54 4.28133 1.58333 4.42 1.67C4.55867 1.73933 4.654 1.88667 4.706 2.112C4.81 2.12933 4.89667 2.14667 4.966 2.164C5.05267 2.18133 5.122 2.19867 5.174 2.216C5.24333 2.82267 5.29533 3.70667 5.33 4.868C5.39933 6.51467 5.512 7.754 5.668 8.586H5.954C6.49133 8.586 6.97667 8.55133 7.41 8.482H7.592C7.696 7.234 7.748 6.00333 7.748 4.79C7.748 3.438 7.722 2.41533 7.67 1.722C8.502 1.47933 9.49867 1.358 10.66 1.358H11.024C11.3013 1.358 11.544 1.37533 11.752 1.41V1.904C11.96 1.904 12.1333 1.91267 12.272 1.93L12.974 20.598ZM11.492 1.644C11.3013 1.62667 11.024 1.618 10.66 1.618C9.53333 1.618 8.62333 1.722 7.93 1.93C7.982 2.97 8.008 3.932 8.008 4.816C8.008 6.08133 7.94733 7.38133 7.826 8.716H7.8C7.19333 8.80267 6.59533 8.846 6.006 8.846C5.59 8.846 5.252 8.81133 4.992 8.742H4.966C4.81 7.92733 4.69733 6.69667 4.628 5.05C4.59333 3.83667 4.524 2.788 4.42 1.904C4.19467 1.83467 3.88267 1.8 3.484 1.8L2.782 1.826L1.924 1.878L1.69 1.904C1.49933 1.904 1.30867 1.878 1.118 1.826L1.04 1.852C1.02267 2.40667 1.014 3.334 1.014 4.634C1.014 7.39 1.04867 10.328 1.118 13.448C1.20467 16.568 1.3 18.7433 1.404 19.974C1.52533 19.9047 1.716 19.87 1.976 19.87C2.184 19.87 2.496 19.8873 2.912 19.922C3.276 19.974 3.62267 20 3.952 20C4.19467 20 4.38533 19.9913 4.524 19.974C4.68 19.9567 4.81867 19.9047 4.94 19.818C5.02667 19.2113 5.07 18.466 5.07 17.582C5.07 16.906 5.06133 16.3947 5.044 16.048L5.018 14.54C5.018 13.9853 5.044 13.422 5.096 12.85C5.564 12.7287 6.09267 12.668 6.682 12.668C7.08067 12.668 7.55733 12.7113 8.112 12.798L8.138 12.824C8.22467 13.5347 8.28533 14.6613 8.32 16.204C8.32 17.7987 8.38933 19.064 8.528 20H8.554C8.69267 19.9827 8.944 19.974 9.308 19.974H10.244C11.0413 19.974 11.6913 19.9307 12.194 19.844L11.492 1.644ZM25.1686 7.546C25.2033 7.82333 25.2206 8.04 25.2206 8.196V8.456C25.2033 8.924 25.1946 9.6 25.1946 10.484L25.2206 13.396C25.2379 14.0547 25.2466 15.034 25.2466 16.334C25.2466 17.3567 25.2206 18.4053 25.1686 19.48V19.662C25.1686 20.026 25.1426 20.2947 25.0906 20.468C25.0386 20.6413 24.8826 20.754 24.6226 20.806H24.2586C24.0159 20.806 23.7039 20.7887 23.3226 20.754L22.5686 20.728C22.4473 20.728 22.2653 20.7453 22.0226 20.78L21.4506 20.806C21.1733 20.7367 20.9913 20.5633 20.9046 20.286C20.6793 20.1993 20.5406 20.104 20.4886 20C19.5873 20.5547 18.6946 20.832 17.8106 20.832C16.8919 20.832 16.0773 20.4333 15.3666 19.636C14.6733 18.8387 14.1359 17.842 13.7546 16.646C13.3906 15.4327 13.2086 14.2453 13.2086 13.084C13.2086 11.7667 13.4339 10.64 13.8846 9.704C14.3353 8.75067 14.9506 8.03133 15.7306 7.546C16.5279 7.06067 17.4206 6.818 18.4086 6.818C18.8939 6.818 19.2666 6.85267 19.5266 6.922C19.8039 6.99133 20.0553 7.16467 20.2806 7.442C20.2979 7.35533 20.3153 7.21667 20.3326 7.026C20.3499 6.83533 20.3933 6.714 20.4626 6.662C20.5319 6.61 20.6446 6.584 20.8006 6.584C20.9566 6.584 21.0953 6.60133 21.2166 6.636C21.3553 6.65333 21.4853 6.662 21.6066 6.662H21.8406C22.2913 6.662 23.1493 6.70533 24.4146 6.792L24.6486 7.026L24.6746 7.312H24.9346L25.1686 7.546ZM21.5546 6.922L20.8526 6.896C20.6793 6.896 20.5753 7.00867 20.5406 7.234C20.5059 7.442 20.4886 7.74533 20.4886 8.144V8.274C20.3326 7.89267 20.1333 7.61533 19.8906 7.442C19.6479 7.26867 19.3793 7.16467 19.0846 7.13C18.7899 7.09533 18.3739 7.078 17.8366 7.078C17.0219 7.09533 16.2766 7.37267 15.6006 7.91C14.9419 8.43 14.4219 9.14067 14.0406 10.042C13.6593 10.9433 13.4686 11.9573 13.4686 13.084C13.4686 14.1067 13.6073 15.1553 13.8846 16.23C14.1619 17.3047 14.5866 18.2147 15.1586 18.96C15.7479 19.688 16.4586 20.052 17.2906 20.052C17.8799 20.052 18.4866 19.9133 19.1106 19.636C19.7519 19.3413 20.2893 18.9773 20.7226 18.544C20.7226 18.648 20.7053 18.7953 20.6706 18.986C20.6359 19.1593 20.6186 19.3153 20.6186 19.454C20.6186 19.7487 20.7226 19.9393 20.9306 20.026C21.0693 20.026 21.2599 20.0087 21.5026 19.974L22.0486 19.948L22.9066 19.974C23.2879 20.0087 23.5653 20.026 23.7386 20.026H24.0506C24.1893 19.9913 24.2759 19.922 24.3106 19.818C24.3626 19.6967 24.3886 19.532 24.3886 19.324V18.96C24.4579 17.9373 24.4926 16.802 24.4926 15.554L24.4666 12.694C24.4319 11.4113 24.4146 10.4407 24.4146 9.782C24.4146 8.96733 24.4233 8.352 24.4406 7.936V7.676C24.4406 7.53733 24.4233 7.32933 24.3886 7.052C23.9033 7.01733 23.0539 6.974 21.8406 6.922H21.5546ZM19.2406 10.562C19.6739 10.562 19.9773 10.6053 20.1506 10.692C20.3413 10.7613 20.4626 10.926 20.5146 11.186C20.5666 11.4287 20.5926 11.8447 20.5926 12.434V13.864C20.5926 14.488 20.5579 14.9733 20.4886 15.32C20.4366 15.6667 20.2893 15.9353 20.0466 16.126C19.8213 16.3167 19.4659 16.412 18.9806 16.412C18.2699 16.412 17.7066 16.1433 17.2906 15.606C16.8746 15.0687 16.6666 14.4013 16.6666 13.604C16.6666 13.032 16.7186 12.5727 16.8226 12.226C16.9266 11.758 17.1866 11.368 17.6026 11.056C18.0186 10.7267 18.5646 10.562 19.2406 10.562ZM17.6026 12.824C17.4986 13.1707 17.4466 13.604 17.4466 14.124C17.4466 15.476 17.9579 16.152 18.9806 16.152C19.4139 16.152 19.7259 16.0567 19.9166 15.866C20.1073 15.6753 20.2199 15.4153 20.2546 15.086C20.3066 14.7567 20.3326 14.254 20.3326 13.578V12.902L20.3586 12.122C20.3586 11.8447 20.3153 11.6453 20.2286 11.524C20.1593 11.4027 20.0033 11.342 19.7606 11.342C19.1539 11.342 18.6686 11.4807 18.3046 11.758C17.9406 12.0353 17.7066 12.382 17.6026 12.798V12.824ZM30.5398 3.568C30.5745 4.12267 30.5918 4.59933 30.5918 4.998C30.5918 5.362 30.5832 5.66533 30.5658 5.908L30.5398 6.948C31.0598 6.77467 31.6838 6.688 32.4118 6.688C34.1278 6.688 35.4278 7.22533 36.3118 8.3C37.1958 9.37467 37.6378 10.978 37.6378 13.11C37.5858 14.618 37.4385 15.9093 37.1958 16.984C36.9532 18.0413 36.4678 18.934 35.7398 19.662C35.0292 20.3727 33.9718 20.728 32.5678 20.728C31.6665 20.728 30.9992 20.416 30.5658 19.792V20.286C30.5658 20.494 30.4792 20.6327 30.3058 20.702C30.1498 20.7713 29.9158 20.806 29.6038 20.806C28.9278 20.806 28.4165 20.7973 28.0698 20.78L26.5098 20.754L26.4838 20.234H25.9898C25.9725 19.558 25.9638 18.4227 25.9638 16.828C25.9638 15.476 25.9725 14.2713 25.9898 13.214C26.0072 12.1567 26.0245 11.2467 26.0418 10.484C26.1112 7.39867 26.1458 5.04133 26.1458 3.412V1.462C26.5965 1.37533 27.1858 1.332 27.9138 1.332C28.4165 1.332 28.8758 1.37533 29.2918 1.462C29.7252 1.54867 29.9418 1.63533 29.9418 1.722V2.008C30.2885 2.09467 30.4618 2.17267 30.4618 2.242V2.528L30.5398 3.568ZM29.6818 1.722C29.6818 1.68733 29.4912 1.66133 29.1098 1.644C28.7458 1.60933 28.3472 1.592 27.9138 1.592C27.2725 1.592 26.7698 1.62667 26.4058 1.696V3.412C26.4058 5.076 26.3712 7.468 26.3018 10.588C26.2845 11.3333 26.2672 12.252 26.2498 13.344C26.2325 14.436 26.2238 15.6927 26.2238 17.114C26.2238 18.414 26.2325 19.3673 26.2498 19.974C26.8045 19.974 27.2292 19.9827 27.5238 20L28.9278 20.026C29.4998 20.026 29.7858 19.9393 29.7858 19.766C29.7858 19.5753 29.7945 19.35 29.8118 19.09C29.8292 18.83 29.8812 18.7 29.9678 18.7C29.9852 18.7 30.0198 18.7347 30.0718 18.804C30.4358 19.5667 31.0772 19.948 31.9958 19.948C33.3825 19.948 34.4225 19.61 35.1158 18.934C35.8092 18.258 36.2598 17.4173 36.4678 16.412C36.6758 15.4067 36.8058 14.1327 36.8578 12.59C36.8578 11.2727 36.6845 10.1287 36.3378 9.158C36.0085 8.18733 35.4798 7.572 34.7518 7.312C34.1625 7.06933 33.3825 6.948 32.4118 6.948C31.7358 6.948 31.1292 7.01733 30.5918 7.156C30.0545 7.29467 29.7772 7.45933 29.7598 7.65C29.7772 7.11267 29.7858 6.454 29.7858 5.674V4.478C29.7858 3.76733 29.7685 3.24733 29.7338 2.918L29.6818 2.008V1.722ZM33.8938 13.318C33.8938 14.2367 33.6772 15.034 33.2438 15.71C32.8105 16.386 32.2385 16.724 31.5278 16.724C30.9732 16.724 30.5572 16.5767 30.2798 16.282C30.0198 15.97 29.8465 15.554 29.7598 15.034C29.6905 14.514 29.6558 13.8207 29.6558 12.954C29.6558 11.9833 29.6818 11.3073 29.7338 10.926C29.8032 10.5447 29.9418 10.2933 30.1498 10.172C30.3578 10.0333 30.7218 9.964 31.2418 9.964C32.6978 9.964 33.5212 10.5793 33.7118 11.81C33.8332 12.1393 33.8938 12.642 33.8938 13.318ZM33.4518 11.836C33.3652 11.4027 33.1918 11.1167 32.9318 10.978C32.6718 10.822 32.2818 10.744 31.7618 10.744C31.3285 10.744 31.0252 10.8047 30.8518 10.926C30.6785 11.0473 30.5658 11.2813 30.5138 11.628C30.4618 11.9747 30.4358 12.59 30.4358 13.474V14.28C30.4358 15.008 30.4965 15.554 30.6178 15.918C30.7565 16.282 31.0598 16.464 31.5278 16.464C32.1692 16.464 32.6805 16.152 33.0618 15.528C33.4432 14.904 33.6338 14.1673 33.6338 13.318C33.6338 13.266 33.6338 13.0753 33.6338 12.746C33.6338 12.4167 33.5818 12.1307 33.4778 11.888L33.4518 11.836ZM42.1064 1.592H42.6264L42.6524 2.996C42.6871 4.00133 42.7044 4.75533 42.7044 5.258C42.5137 5.55267 42.0977 5.7 41.4564 5.7C41.3004 5.7 40.9624 5.68267 40.4424 5.648H40.4684L39.5844 5.622C39.2377 5.622 38.9344 5.63067 38.6744 5.648V5.102L38.1544 5.128C38.1544 4.79867 38.1371 4.30467 38.1024 3.646C38.0677 2.84867 38.0504 2.14667 38.0504 1.54V0.994L42.1064 1.072V1.592ZM38.3104 1.67C38.3104 2.20733 38.3277 2.84 38.3624 3.568C38.3971 4.15733 38.4144 4.582 38.4144 4.842H38.8564C39.1164 4.842 39.4891 4.85933 39.9744 4.894L40.9104 4.92C41.4824 4.92 41.8204 4.83333 41.9244 4.66C41.9244 4.10533 41.9071 3.34267 41.8724 2.372C41.8551 2.06 41.8464 1.71333 41.8464 1.332L38.3104 1.254V1.67ZM42.2104 7.234L42.7304 7.312C42.7304 8.3 42.7131 9.79933 42.6784 11.81C42.6264 13.318 42.6004 14.8607 42.6004 16.438C42.6004 17.9807 42.6351 19.3153 42.7044 20.442C42.5657 20.5807 42.3751 20.676 42.1324 20.728C41.8897 20.78 41.5777 20.806 41.1964 20.806C40.6937 20.806 40.3124 20.7973 40.0524 20.78H40.0784L39.4544 20.754C39.0731 20.754 38.7524 20.7973 38.4924 20.884C38.4924 20.7627 38.5097 20.546 38.5444 20.234C38.2844 20.2687 38.0937 20.312 37.9724 20.364C38.0591 19.2027 38.1024 18.0067 38.1024 16.776C38.1024 16.0827 38.0851 15.0427 38.0504 13.656C38.0157 12.2693 37.9984 11.212 37.9984 10.484C37.9984 9.27067 38.0591 7.99667 38.1804 6.662C38.3017 6.662 38.3884 6.65333 38.4404 6.636L38.8564 6.584C38.9951 6.584 39.2551 6.60133 39.6364 6.636C40.0351 6.65333 40.4597 6.662 40.9104 6.662H41.5084L42.2104 6.792V7.234ZM40.9104 6.922C40.3384 6.922 39.7924 6.90467 39.2724 6.87L38.5184 6.844H38.4144V6.87C38.3104 7.78867 38.2584 8.976 38.2584 10.432C38.2584 11.0907 38.2757 12.1307 38.3104 13.552C38.3451 14.9733 38.3624 16.0567 38.3624 16.802C38.3624 17.9807 38.3277 19.0467 38.2584 20C38.2931 19.9827 38.4317 19.974 38.6744 19.974C39.0384 19.974 39.3331 19.9827 39.5584 20L40.7284 20.026C41.1097 20.026 41.3871 20.0173 41.5604 20C41.7511 19.9827 41.8724 19.9307 41.9244 19.844C41.8551 18.6133 41.8204 17.218 41.8204 15.658C41.8204 13.9593 41.8464 12.278 41.8984 10.614C41.9331 8.98467 41.9504 7.78 41.9504 7V6.922H40.9104ZM47.5932 1.436H48.1132C48.1132 2.23333 48.0959 4.07067 48.0612 6.948C48.0439 7.79733 48.0265 8.91533 48.0092 10.302C47.9919 11.6887 47.9832 13.3093 47.9832 15.164C47.9832 17.556 48.0179 19.3153 48.0872 20.442C47.9485 20.5807 47.7579 20.676 47.5152 20.728C47.2725 20.78 46.9605 20.806 46.5792 20.806C46.0765 20.806 45.6952 20.7973 45.4352 20.78H45.4612L44.8372 20.754C44.4559 20.754 44.1352 20.7973 43.8752 20.884L43.9012 20.26C43.6932 20.26 43.5112 20.2947 43.3552 20.364C43.4765 18.6653 43.5372 17.0967 43.5372 15.658C43.5372 14.6007 43.5025 12.98 43.4332 10.796C43.3639 8.64667 43.3292 7.00867 43.3292 5.882C43.3292 4.062 43.4072 2.38067 43.5632 0.837999L47.5932 0.915999V1.436ZM43.7972 1.098C43.6412 2.762 43.5632 4.41733 43.5632 6.064C43.5632 7.55467 43.6065 9.19267 43.6932 10.978C43.7625 13.162 43.7972 14.7827 43.7972 15.84C43.7972 17.2267 43.7452 18.6133 43.6412 20C43.6759 19.9827 43.8145 19.974 44.0572 19.974C44.4212 19.974 44.7159 19.9827 44.9412 20L46.1112 20.026C46.4925 20.026 46.7699 20.0173 46.9432 20C47.1339 19.9827 47.2552 19.9307 47.3072 19.844C47.2552 18.9947 47.2292 17.2527 47.2292 14.618C47.2292 12.6247 47.2465 9.89467 47.2812 6.428L47.3332 1.176L43.7972 1.098ZM52.8466 1.592H53.3666L53.3926 2.996C53.4273 4.00133 53.4446 4.75533 53.4446 5.258C53.254 5.55267 52.838 5.7 52.1966 5.7C52.0406 5.7 51.7026 5.68267 51.1826 5.648H51.2086L50.3246 5.622C49.978 5.622 49.6746 5.63067 49.4146 5.648V5.102L48.8946 5.128C48.8946 4.79867 48.8773 4.30467 48.8426 3.646C48.808 2.84867 48.7906 2.14667 48.7906 1.54V0.994L52.8466 1.072V1.592ZM49.0506 1.67C49.0506 2.20733 49.068 2.84 49.1026 3.568C49.1373 4.15733 49.1546 4.582 49.1546 4.842H49.5966C49.8566 4.842 50.2293 4.85933 50.7146 4.894L51.6506 4.92C52.2226 4.92 52.5606 4.83333 52.6646 4.66C52.6646 4.10533 52.6473 3.34267 52.6126 2.372C52.5953 2.06 52.5866 1.71333 52.5866 1.332L49.0506 1.254V1.67ZM52.9506 7.234L53.4706 7.312C53.4706 8.3 53.4533 9.79933 53.4186 11.81C53.3666 13.318 53.3406 14.8607 53.3406 16.438C53.3406 17.9807 53.3753 19.3153 53.4446 20.442C53.306 20.5807 53.1153 20.676 52.8726 20.728C52.63 20.78 52.318 20.806 51.9366 20.806C51.434 20.806 51.0526 20.7973 50.7926 20.78H50.8186L50.1946 20.754C49.8133 20.754 49.4926 20.7973 49.2326 20.884C49.2326 20.7627 49.25 20.546 49.2846 20.234C49.0246 20.2687 48.834 20.312 48.7126 20.364C48.7993 19.2027 48.8426 18.0067 48.8426 16.776C48.8426 16.0827 48.8253 15.0427 48.7906 13.656C48.756 12.2693 48.7386 11.212 48.7386 10.484C48.7386 9.27067 48.7993 7.99667 48.9206 6.662C49.042 6.662 49.1286 6.65333 49.1806 6.636L49.5966 6.584C49.7353 6.584 49.9953 6.60133 50.3766 6.636C50.7753 6.65333 51.2 6.662 51.6506 6.662H52.2486L52.9506 6.792V7.234ZM51.6506 6.922C51.0786 6.922 50.5326 6.90467 50.0126 6.87L49.2586 6.844H49.1546V6.87C49.0506 7.78867 48.9986 8.976 48.9986 10.432C48.9986 11.0907 49.016 12.1307 49.0506 13.552C49.0853 14.9733 49.1026 16.0567 49.1026 16.802C49.1026 17.9807 49.068 19.0467 48.9986 20C49.0333 19.9827 49.172 19.974 49.4146 19.974C49.7786 19.974 50.0733 19.9827 50.2986 20L51.4686 20.026C51.85 20.026 52.1273 20.0173 52.3006 20C52.4913 19.9827 52.6126 19.9307 52.6646 19.844C52.5953 18.6133 52.5606 17.218 52.5606 15.658C52.5606 13.9593 52.5866 12.278 52.6386 10.614C52.6733 8.98467 52.6906 7.78 52.6906 7V6.922H51.6506ZM65.3014 3.932C65.3014 5.50933 65.3361 7.806 65.4054 10.822C65.4228 11.5673 65.4401 12.486 65.4574 13.578C65.4748 14.67 65.4834 15.9267 65.4834 17.348C65.4834 18.9427 65.4748 20.078 65.4574 20.754L63.8974 20.78C63.5508 20.7973 63.0394 20.806 62.3634 20.806C62.0514 20.806 61.8088 20.7713 61.6354 20.702C61.4794 20.6327 61.4014 20.494 61.4014 20.286V20.234L61.0634 20.208L61.0114 20.156C60.5608 20.5373 59.9974 20.728 59.3214 20.728C58.5588 20.728 57.8828 20.5893 57.2934 20.312C56.7214 20.0347 56.2448 19.6707 55.8634 19.22C54.4941 18.128 53.8094 15.918 53.8094 12.59C53.8094 11.2553 54.0001 10.0767 54.3814 9.054C54.7628 8.03133 55.3348 7.37267 56.0974 7.078C56.7388 6.818 57.5448 6.688 58.5154 6.688C59.5554 6.688 60.3528 6.83533 60.9074 7.13L60.8554 4.478C60.8554 4.07933 60.8728 3.60267 60.9074 3.048L60.9854 2.008V1.722C60.9854 1.63533 61.1934 1.54867 61.6094 1.462C62.0428 1.37533 62.5108 1.332 63.0134 1.332C63.6894 1.332 64.2788 1.384 64.7814 1.488V1.93L65.3014 2.008V3.932ZM64.6774 19.974C64.6948 19.3673 64.7034 18.4227 64.7034 17.14C64.7034 15.736 64.6948 14.488 64.6774 13.396C64.6601 12.2867 64.6428 11.3507 64.6254 10.588C64.5561 7.468 64.5214 5.076 64.5214 3.412V1.696C64.1574 1.62667 63.6548 1.592 63.0134 1.592C62.5801 1.592 62.1728 1.60933 61.7914 1.644C61.4274 1.66133 61.2454 1.68733 61.2454 1.722V2.008L61.1934 2.918C61.1588 3.24733 61.1414 3.76733 61.1414 4.478V5.674C61.1414 6.454 61.1501 7.11267 61.1674 7.65C61.0981 7.45933 60.8034 7.29467 60.2834 7.156C59.7634 7.01733 59.1654 6.948 58.4894 6.948C57.7094 6.948 56.9381 7.06933 56.1754 7.312C55.4474 7.572 54.9101 8.18733 54.5634 9.158C54.2341 10.1287 54.0694 11.2727 54.0694 12.59C54.1041 14.0807 54.2254 15.3373 54.4334 16.36C54.6588 17.3827 55.1181 18.2407 55.8114 18.934C56.5221 19.61 57.5621 19.948 58.9314 19.948C59.8154 19.948 60.4568 19.5667 60.8554 18.804C60.8728 18.7347 60.9074 18.7 60.9594 18.7C61.0288 18.7 61.0894 18.8993 61.1414 19.298C61.1934 19.6967 61.2021 19.9133 61.1674 19.948C61.5661 20 62.0081 20.026 62.4934 20.026L63.6374 20C63.8801 19.9827 64.2268 19.974 64.6774 19.974ZM59.6854 9.964C60.2054 9.964 60.5694 10.0333 60.7774 10.172C60.9854 10.2933 61.1154 10.5447 61.1674 10.926C61.2368 11.3073 61.2714 11.9833 61.2714 12.954C61.2714 13.8207 61.2281 14.514 61.1414 15.034C61.0721 15.554 60.8988 15.97 60.6214 16.282C60.3614 16.5767 59.9541 16.724 59.3994 16.724C58.6888 16.724 58.1168 16.386 57.6834 15.71C57.2501 15.034 57.0334 14.2367 57.0334 13.318C57.0334 12.642 57.0941 12.1393 57.2154 11.81C57.4061 10.5793 58.2294 9.964 59.6854 9.964ZM61.0114 11.966C61.0114 11.498 60.9594 11.1773 60.8554 11.004C60.7688 10.8307 60.5521 10.744 60.2054 10.744C58.8881 10.744 58.1514 11.2813 57.9954 12.356L57.9694 12.408C57.8654 12.6507 57.8134 13.0147 57.8134 13.5C57.8134 15.476 58.3421 16.464 59.3994 16.464C59.8848 16.464 60.2401 16.3253 60.4654 16.048C60.7081 15.7533 60.8554 15.372 60.9074 14.904C60.9768 14.4187 61.0114 13.7687 61.0114 12.954V11.966ZM77.7526 7.546C77.7873 7.82333 77.8046 8.04 77.8046 8.196V8.456C77.7873 8.924 77.7786 9.6 77.7786 10.484L77.8046 13.396C77.8219 14.0547 77.8306 15.034 77.8306 16.334C77.8306 17.3567 77.8046 18.4053 77.7526 19.48V19.662C77.7526 20.026 77.7266 20.2947 77.6746 20.468C77.6226 20.6413 77.4666 20.754 77.2066 20.806H76.8426C76.5999 20.806 76.2879 20.7887 75.9066 20.754L75.1526 20.728C75.0313 20.728 74.8493 20.7453 74.6066 20.78L74.0346 20.806C73.7573 20.7367 73.5753 20.5633 73.4886 20.286C73.2633 20.1993 73.1246 20.104 73.0726 20C72.1713 20.5547 71.2786 20.832 70.3946 20.832C69.4759 20.832 68.6613 20.4333 67.9506 19.636C67.2573 18.8387 66.7199 17.842 66.3386 16.646C65.9746 15.4327 65.7926 14.2453 65.7926 13.084C65.7926 11.7667 66.0179 10.64 66.4686 9.704C66.9193 8.75067 67.5346 8.03133 68.3146 7.546C69.1119 7.06067 70.0046 6.818 70.9926 6.818C71.4779 6.818 71.8506 6.85267 72.1106 6.922C72.3879 6.99133 72.6393 7.16467 72.8646 7.442C72.8819 7.35533 72.8993 7.21667 72.9166 7.026C72.9339 6.83533 72.9773 6.714 73.0466 6.662C73.1159 6.61 73.2286 6.584 73.3846 6.584C73.5406 6.584 73.6793 6.60133 73.8006 6.636C73.9393 6.65333 74.0693 6.662 74.1906 6.662H74.4246C74.8753 6.662 75.7333 6.70533 76.9986 6.792L77.2326 7.026L77.2586 7.312H77.5186L77.7526 7.546ZM74.1386 6.922L73.4366 6.896C73.2633 6.896 73.1593 7.00867 73.1246 7.234C73.0899 7.442 73.0726 7.74533 73.0726 8.144V8.274C72.9166 7.89267 72.7173 7.61533 72.4746 7.442C72.2319 7.26867 71.9633 7.16467 71.6686 7.13C71.3739 7.09533 70.9579 7.078 70.4206 7.078C69.6059 7.09533 68.8606 7.37267 68.1846 7.91C67.5259 8.43 67.0059 9.14067 66.6246 10.042C66.2433 10.9433 66.0526 11.9573 66.0526 13.084C66.0526 14.1067 66.1913 15.1553 66.4686 16.23C66.7459 17.3047 67.1706 18.2147 67.7426 18.96C68.3319 19.688 69.0426 20.052 69.8746 20.052C70.4639 20.052 71.0706 19.9133 71.6946 19.636C72.3359 19.3413 72.8733 18.9773 73.3066 18.544C73.3066 18.648 73.2893 18.7953 73.2546 18.986C73.2199 19.1593 73.2026 19.3153 73.2026 19.454C73.2026 19.7487 73.3066 19.9393 73.5146 20.026C73.6533 20.026 73.8439 20.0087 74.0866 19.974L74.6326 19.948L75.4906 19.974C75.8719 20.0087 76.1493 20.026 76.3226 20.026H76.6346C76.7733 19.9913 76.8599 19.922 76.8946 19.818C76.9466 19.6967 76.9726 19.532 76.9726 19.324V18.96C77.0419 17.9373 77.0766 16.802 77.0766 15.554L77.0506 12.694C77.0159 11.4113 76.9986 10.4407 76.9986 9.782C76.9986 8.96733 77.0073 8.352 77.0246 7.936V7.676C77.0246 7.53733 77.0073 7.32933 76.9726 7.052C76.4873 7.01733 75.6379 6.974 74.4246 6.922H74.1386ZM71.8246 10.562C72.2579 10.562 72.5613 10.6053 72.7346 10.692C72.9253 10.7613 73.0466 10.926 73.0986 11.186C73.1506 11.4287 73.1766 11.8447 73.1766 12.434V13.864C73.1766 14.488 73.1419 14.9733 73.0726 15.32C73.0206 15.6667 72.8733 15.9353 72.6306 16.126C72.4053 16.3167 72.0499 16.412 71.5646 16.412C70.8539 16.412 70.2906 16.1433 69.8746 15.606C69.4586 15.0687 69.2506 14.4013 69.2506 13.604C69.2506 13.032 69.3026 12.5727 69.4066 12.226C69.5106 11.758 69.7706 11.368 70.1866 11.056C70.6026 10.7267 71.1486 10.562 71.8246 10.562ZM70.1866 12.824C70.0826 13.1707 70.0306 13.604 70.0306 14.124C70.0306 15.476 70.5419 16.152 71.5646 16.152C71.9979 16.152 72.3099 16.0567 72.5006 15.866C72.6913 15.6753 72.8039 15.4153 72.8386 15.086C72.8906 14.7567 72.9166 14.254 72.9166 13.578V12.902L72.9426 12.122C72.9426 11.8447 72.8993 11.6453 72.8126 11.524C72.7433 11.4027 72.5873 11.342 72.3446 11.342C71.7379 11.342 71.2526 11.4807 70.8886 11.758C70.5246 12.0353 70.2906 12.382 70.1866 12.798V12.824ZM89.7018 3.932C89.7018 5.50933 89.7365 7.806 89.8058 10.822C89.8232 11.5673 89.8405 12.486 89.8578 13.578C89.8752 14.67 89.8838 15.9267 89.8838 17.348C89.8838 18.9427 89.8752 20.078 89.8578 20.754L88.2978 20.78C87.9512 20.7973 87.4398 20.806 86.7638 20.806C86.4518 20.806 86.2092 20.7713 86.0358 20.702C85.8798 20.6327 85.8018 20.494 85.8018 20.286V20.234L85.4638 20.208L85.4118 20.156C84.9612 20.5373 84.3978 20.728 83.7218 20.728C82.9592 20.728 82.2832 20.5893 81.6938 20.312C81.1218 20.0347 80.6452 19.6707 80.2638 19.22C78.8945 18.128 78.2098 15.918 78.2098 12.59C78.2098 11.2553 78.4005 10.0767 78.7818 9.054C79.1632 8.03133 79.7352 7.37267 80.4978 7.078C81.1392 6.818 81.9452 6.688 82.9158 6.688C83.9558 6.688 84.7532 6.83533 85.3078 7.13L85.2558 4.478C85.2558 4.07933 85.2732 3.60267 85.3078 3.048L85.3858 2.008V1.722C85.3858 1.63533 85.5938 1.54867 86.0098 1.462C86.4432 1.37533 86.9112 1.332 87.4138 1.332C88.0898 1.332 88.6792 1.384 89.1818 1.488V1.93L89.7018 2.008V3.932ZM89.0778 19.974C89.0952 19.3673 89.1038 18.4227 89.1038 17.14C89.1038 15.736 89.0952 14.488 89.0778 13.396C89.0605 12.2867 89.0432 11.3507 89.0258 10.588C88.9565 7.468 88.9218 5.076 88.9218 3.412V1.696C88.5578 1.62667 88.0552 1.592 87.4138 1.592C86.9805 1.592 86.5732 1.60933 86.1918 1.644C85.8278 1.66133 85.6458 1.68733 85.6458 1.722V2.008L85.5938 2.918C85.5592 3.24733 85.5418 3.76733 85.5418 4.478V5.674C85.5418 6.454 85.5505 7.11267 85.5678 7.65C85.4985 7.45933 85.2038 7.29467 84.6838 7.156C84.1638 7.01733 83.5658 6.948 82.8898 6.948C82.1098 6.948 81.3385 7.06933 80.5758 7.312C79.8478 7.572 79.3105 8.18733 78.9638 9.158C78.6345 10.1287 78.4698 11.2727 78.4698 12.59C78.5045 14.0807 78.6258 15.3373 78.8338 16.36C79.0592 17.3827 79.5185 18.2407 80.2118 18.934C80.9225 19.61 81.9625 19.948 83.3318 19.948C84.2158 19.948 84.8572 19.5667 85.2558 18.804C85.2732 18.7347 85.3078 18.7 85.3598 18.7C85.4292 18.7 85.4898 18.8993 85.5418 19.298C85.5938 19.6967 85.6025 19.9133 85.5678 19.948C85.9665 20 86.4085 20.026 86.8938 20.026L88.0378 20C88.2805 19.9827 88.6272 19.974 89.0778 19.974ZM84.0858 9.964C84.6058 9.964 84.9698 10.0333 85.1778 10.172C85.3858 10.2933 85.5158 10.5447 85.5678 10.926C85.6372 11.3073 85.6718 11.9833 85.6718 12.954C85.6718 13.8207 85.6285 14.514 85.5418 15.034C85.4725 15.554 85.2992 15.97 85.0218 16.282C84.7618 16.5767 84.3545 16.724 83.7998 16.724C83.0892 16.724 82.5172 16.386 82.0838 15.71C81.6505 15.034 81.4338 14.2367 81.4338 13.318C81.4338 12.642 81.4945 12.1393 81.6158 11.81C81.8065 10.5793 82.6298 9.964 84.0858 9.964ZM85.4118 11.966C85.4118 11.498 85.3598 11.1773 85.2558 11.004C85.1692 10.8307 84.9525 10.744 84.6058 10.744C83.2885 10.744 82.5518 11.2813 82.3958 12.356L82.3698 12.408C82.2658 12.6507 82.2138 13.0147 82.2138 13.5C82.2138 15.476 82.7425 16.464 83.7998 16.464C84.2852 16.464 84.6405 16.3253 84.8658 16.048C85.1085 15.7533 85.2558 15.372 85.3078 14.904C85.3772 14.4187 85.4118 13.7687 85.4118 12.954V11.966ZM94.795 14.748C94.795 15.1987 94.821 15.5713 94.873 15.866C94.9423 16.1433 95.0723 16.4467 95.263 16.776V16.828C95.4883 16.9493 95.7657 17.01 96.095 17.01C96.459 17.01 96.7623 16.8453 97.005 16.516C97.2477 16.1693 97.369 15.658 97.369 14.982V14.722C97.7503 14.7567 98.0363 14.774 98.227 14.774L99.137 14.748C99.3277 14.7307 99.6223 14.722 100.021 14.722C100.316 14.722 100.706 14.7653 101.191 14.852L101.165 15.294L101.711 15.372C101.711 17.244 101.503 18.5873 101.087 19.402C100.688 20.2167 100.168 20.702 99.527 20.858C98.903 21.0313 97.941 21.118 96.641 21.118C95.601 21.118 94.769 21.04 94.145 20.884C93.5383 20.7453 93.0183 20.416 92.585 19.896C91.7877 19.2373 91.1983 18.2927 90.817 17.062C90.4357 15.8313 90.245 14.4967 90.245 13.058C90.245 11.3767 90.4443 9.99867 90.843 8.924C91.207 8.092 91.8397 7.45933 92.741 7.026C93.6423 6.57533 94.6477 6.35 95.757 6.35C97.0917 6.35 98.2097 6.636 99.111 7.208C100.03 7.78 100.706 8.55133 101.139 9.522C101.59 10.4753 101.815 11.524 101.815 12.668C101.815 12.772 101.789 13.214 101.737 13.994C101.408 14.0807 100.532 14.1587 99.111 14.228C97.707 14.2973 96.459 14.332 95.367 14.332C95.107 14.332 94.9163 14.3233 94.795 14.306V14.748ZM94.015 13.474C94.223 13.526 94.821 13.552 95.809 13.552C96.7623 13.552 97.7937 13.526 98.903 13.474C100.012 13.4047 100.706 13.3353 100.983 13.266C101.018 12.746 101.035 12.3733 101.035 12.148C101.035 10.4147 100.645 9.06267 99.865 8.092C99.1023 7.104 97.733 6.61 95.757 6.61C94.717 6.61 93.755 6.82667 92.871 7.26C92.0043 7.676 91.4063 8.25667 91.077 9.002C90.6783 10.0767 90.479 11.5153 90.479 13.318C90.479 15.1207 90.7823 16.6807 91.389 17.998C91.9957 19.3153 92.9403 20.0693 94.223 20.26L95.367 20.286C95.9563 20.3207 96.4157 20.338 96.745 20.338C97.5597 20.338 98.253 20.2513 98.825 20.078C99.4143 19.9047 99.8737 19.584 100.203 19.116C100.428 18.9253 100.584 18.5267 100.671 17.92C100.758 17.296 100.844 16.3427 100.931 15.06C100.671 15.008 100.333 14.982 99.917 14.982L98.903 15.008C98.695 15.0253 98.409 15.034 98.045 15.034C97.837 15.034 97.707 15.0253 97.655 15.008V15.216C97.655 15.892 97.499 16.4033 97.187 16.75C96.8923 17.0967 96.5283 17.27 96.095 17.27C94.7603 17.27 94.067 16.1607 94.015 13.942V13.474ZM98.175 11.42C98.175 11.472 98.1143 11.498 97.993 11.498C97.9063 11.498 97.733 11.4893 97.473 11.472C97.213 11.4547 96.901 11.446 96.537 11.446L94.847 11.472C94.5177 11.472 94.301 11.4547 94.197 11.42C94.093 11.3853 94.041 11.3073 94.041 11.186C94.041 9.85133 94.7777 9.184 96.251 9.184C96.5803 9.184 96.8837 9.27067 97.161 9.444C97.473 9.6 97.7157 9.834 97.889 10.146C98.0797 10.458 98.175 10.7873 98.175 11.134V11.42ZM97.551 10.172C97.3257 10.0333 97.0657 9.964 96.771 9.964C96.1643 9.964 95.7223 10.068 95.445 10.276C95.185 10.484 95.003 10.796 94.899 11.212L95.393 11.186H96.537L97.655 11.212L97.915 11.238V11.134C97.915 10.7353 97.8023 10.4233 97.577 10.198L97.551 10.172ZM113.42 11.784C112.813 11.888 112.146 11.94 111.418 11.94C110.811 11.94 110.118 11.8707 109.338 11.732L109.364 11.524C109.364 11.42 109.32 11.3507 109.234 11.316C109.147 11.264 109.06 11.238 108.974 11.238C108.887 11.2207 108.835 11.212 108.818 11.212L108.844 11.004C108.844 10.7267 108.757 10.536 108.584 10.432C108.41 10.3107 108.185 10.224 107.908 10.172C107.596 10.2587 107.353 10.3887 107.18 10.562C107.006 10.7353 106.92 10.926 106.92 11.134C106.92 11.4633 107.093 11.6973 107.44 11.836L107.388 11.81C109.329 12.122 110.828 12.6247 111.886 13.318C112.943 14.0113 113.472 15.112 113.472 16.62C113.472 18.2147 112.952 19.376 111.912 20.104C110.872 20.832 109.502 21.196 107.804 21.196C106.59 21.196 105.507 20.962 104.554 20.494C103.6 20.0433 102.855 19.428 102.318 18.648C101.798 17.8507 101.538 16.984 101.538 16.048V15.684C102.075 15.6147 102.664 15.58 103.306 15.58L104.658 15.606C104.935 15.6233 105.342 15.632 105.88 15.632C105.88 15.7707 105.923 15.944 106.01 16.152H106.4C106.4 16.7587 106.79 17.062 107.57 17.062C108.28 17.062 108.636 16.7153 108.636 16.022C108.636 15.762 108.497 15.58 108.22 15.476C107.96 15.3547 107.535 15.2333 106.946 15.112C106.2 14.9733 105.628 14.8173 105.23 14.644H105.256C104.198 14.28 103.358 13.6907 102.734 12.876C102.11 12.044 101.798 11.186 101.798 10.302C101.798 9.48733 102.058 8.716 102.578 7.988C103.115 7.26 103.817 6.766 104.684 6.506C105.273 6.33267 106.174 6.246 107.388 6.246C108.549 6.246 109.502 6.33267 110.248 6.506C110.993 6.67933 111.6 7.06067 112.068 7.65C113.108 8.49933 113.628 9.79067 113.628 11.524L113.42 11.784ZM110.586 6.818C109.65 6.61 108.584 6.506 107.388 6.506C103.834 6.506 102.058 7.77133 102.058 10.302C102.058 11.082 102.292 11.8013 102.76 12.46C103.228 13.1013 103.912 13.578 104.814 13.89C105.23 14.0807 105.888 14.2627 106.79 14.436C107.535 14.6093 108.072 14.7827 108.402 14.956C108.731 15.1293 108.896 15.424 108.896 15.84C108.896 16.36 108.783 16.7413 108.558 16.984C108.332 17.2093 108.003 17.322 107.57 17.322C107.084 17.322 106.651 17.192 106.27 16.932C105.888 16.672 105.68 16.3253 105.646 15.892L102.656 15.866C102.257 15.866 101.971 15.8833 101.798 15.918V16.048C101.798 17.3827 102.3 18.4487 103.306 19.246C104.311 20.026 105.637 20.416 107.284 20.416C108.861 20.416 110.152 20.0953 111.158 19.454C112.163 18.7953 112.666 17.6773 112.666 16.1C112.666 15.1987 112.458 14.4793 112.042 13.942C111.626 13.4047 111.045 13.006 110.3 12.746C109.572 12.486 108.592 12.2607 107.362 12.07C106.963 11.9313 106.66 11.732 106.452 11.472C106.244 11.212 106.14 10.9347 106.14 10.64C106.14 10.3453 106.252 10.068 106.478 9.808C106.72 9.53067 107.05 9.392 107.466 9.392C107.864 9.392 108.246 9.53933 108.61 9.834C108.974 10.1287 109.156 10.4493 109.156 10.796C109.156 10.9 109.147 10.9693 109.13 11.004C109.667 11.108 110.256 11.16 110.898 11.16C111.608 11.16 112.258 11.108 112.848 11.004C112.848 10.016 112.666 9.158 112.302 8.43C111.938 7.68467 111.366 7.14733 110.586 6.818ZM133.554 19.844C133.433 20.26 133.181 20.52 132.8 20.624C132.419 20.7453 131.925 20.806 131.318 20.806H131.188C130.633 20.806 130.226 20.7887 129.966 20.754C129.723 20.7367 129.472 20.6587 129.212 20.52C128.952 20.3987 128.657 20.182 128.328 19.87C127.409 20.4073 126.179 20.7193 124.636 20.806C123.457 20.806 122.409 20.494 121.49 19.87C120.589 19.2287 119.887 18.4053 119.384 17.4C118.881 16.3947 118.63 15.3547 118.63 14.28C118.63 13.4307 118.873 12.5553 119.358 11.654C119.843 10.7527 120.433 9.97267 121.126 9.314C119.861 7.61533 119.228 6.15067 119.228 4.92C119.228 4.15733 119.479 3.45533 119.982 2.814C120.502 2.17267 121.169 1.67 121.984 1.306C122.799 0.924665 123.639 0.733999 124.506 0.733999C125.459 0.733999 126.335 0.976665 127.132 1.462C127.947 1.93 128.588 2.53667 129.056 3.282C129.524 4.01 129.758 4.738 129.758 5.466C129.758 6.02067 129.654 6.51467 129.446 6.948C129.255 7.38133 128.935 7.962 128.484 8.69L128.328 8.924C127.825 9.66933 127.574 10.1287 127.574 10.302C127.574 10.6487 127.678 11.0127 127.886 11.394C127.903 11.3073 127.947 11.082 128.016 10.718C128.103 10.354 128.276 10.0853 128.536 9.912C128.813 9.73867 129.195 9.652 129.68 9.652H131.526C131.838 9.652 132.081 9.69533 132.254 9.782C132.445 9.86867 132.583 10.0333 132.67 10.276C132.878 10.3453 133.025 10.4667 133.112 10.64C133.216 10.796 133.268 11.0473 133.268 11.394C133.268 11.862 133.216 12.278 133.112 12.642C133.008 13.006 132.826 13.4827 132.566 14.072V14.046C132.497 14.2193 132.427 14.4013 132.358 14.592C132.306 14.7827 132.237 14.9387 132.15 15.06V15.034C132.046 15.2767 131.925 15.5193 131.786 15.762C131.665 16.0047 131.604 16.1607 131.604 16.23C131.604 16.2647 131.699 16.3947 131.89 16.62C132.081 16.8453 132.245 17.036 132.384 17.192C132.713 17.5907 132.973 17.9547 133.164 18.284C133.355 18.596 133.493 18.9513 133.58 19.35V19.688L133.554 19.844ZM132.8 18.882C132.713 18.4833 132.575 18.1453 132.384 17.868C132.193 17.5733 131.899 17.166 131.5 16.646V16.672C131.396 16.5507 131.257 16.386 131.084 16.178C130.911 15.9527 130.824 15.7967 130.824 15.71C130.824 15.6233 130.911 15.398 131.084 15.034C131.257 14.6527 131.405 14.3667 131.526 14.176L131.734 13.63V13.656C132.011 13.0147 132.202 12.512 132.306 12.148C132.427 11.784 132.488 11.3593 132.488 10.874C132.488 10.4927 132.41 10.2413 132.254 10.12C132.098 9.98133 131.855 9.912 131.526 9.912H129.68C129.108 9.912 128.727 10.0333 128.536 10.276C128.345 10.5013 128.215 10.848 128.146 11.316C128.077 11.7147 127.999 11.992 127.912 12.148C127.167 11.212 126.794 10.4147 126.794 9.756C126.794 9.6 126.846 9.418 126.95 9.21C127.071 8.98467 127.271 8.67267 127.548 8.274C127.981 7.63267 128.328 7.052 128.588 6.532C128.848 6.012 128.978 5.48333 128.978 4.946C128.978 4.25267 128.787 3.60267 128.406 2.996C128.025 2.38933 127.487 1.904 126.794 1.54C126.118 1.176 125.355 0.994 124.506 0.994C123.674 0.994 122.868 1.16733 122.088 1.514C121.325 1.86067 120.701 2.33733 120.216 2.944C119.731 3.55067 119.488 4.20933 119.488 4.92C119.488 5.61333 119.679 6.33267 120.06 7.078C120.441 7.82333 120.918 8.57733 121.49 9.34C120.745 10.0333 120.121 10.8133 119.618 11.68C119.133 12.5467 118.89 13.4133 118.89 14.28C118.89 15.2507 119.089 16.178 119.488 17.062C119.904 17.9287 120.502 18.6393 121.282 19.194C122.079 19.7487 123.024 20.026 124.116 20.026C125.728 19.9393 126.967 19.6013 127.834 19.012C128.319 19.4627 128.735 19.7487 129.082 19.87C129.446 19.974 129.975 20.026 130.668 20.026H130.798C131.353 20.026 131.795 19.9827 132.124 19.896C132.471 19.792 132.687 19.5753 132.774 19.246L132.8 19.116V18.882ZM125.026 4.478C125.026 5.17133 124.957 5.752 124.818 6.22C124.697 6.67067 124.489 6.922 124.194 6.974V6.948C124.021 6.948 123.839 6.72267 123.648 6.272C123.475 5.804 123.388 5.37933 123.388 4.998C123.388 4.28733 123.761 3.932 124.506 3.932C124.853 3.932 125.026 4.114 125.026 4.478ZM124.766 4.738C124.367 4.82467 124.168 5.08467 124.168 5.518C124.168 5.86467 124.22 6.23733 124.324 6.636C124.584 6.39333 124.731 5.76067 124.766 4.738ZM124.532 16.386C123.908 16.386 123.466 16.1953 123.206 15.814C122.946 15.4327 122.816 14.9993 122.816 14.514C122.816 13.89 122.955 13.4047 123.232 13.058C123.509 12.694 123.865 12.512 124.298 12.512C124.991 12.512 125.451 12.7287 125.676 13.162C125.901 13.5953 126.014 14.15 126.014 14.826C126.014 15.2247 125.997 15.5107 125.962 15.684C125.945 15.84 125.884 15.9613 125.78 16.048C125.676 16.1347 125.494 16.2213 125.234 16.308C124.87 16.36 124.636 16.386 124.532 16.386ZM125.624 15.996L125.754 14.566C125.754 14.15 125.693 13.838 125.572 13.63C125.468 13.4047 125.182 13.292 124.714 13.292C124.35 13.292 124.073 13.448 123.882 13.76C123.691 14.0547 123.596 14.4967 123.596 15.086C123.596 15.4153 123.648 15.6753 123.752 15.866C123.873 16.0393 124.133 16.126 124.532 16.126C124.636 16.126 124.809 16.1087 125.052 16.074C125.121 16.074 125.208 16.0653 125.312 16.048C125.416 16.0133 125.511 15.996 125.598 15.996H125.624ZM151.692 7.78C151.692 8.88933 151.389 9.92933 150.782 10.9C150.175 11.8533 149.369 12.616 148.364 13.188C147.376 13.7427 146.336 14.02 145.244 14.02C144.949 14.02 144.733 14.0113 144.594 13.994V15.086C144.594 16.75 144.62 18.5527 144.672 20.494C144.499 20.494 144.256 20.52 143.944 20.572C143.823 20.5893 143.554 20.6153 143.138 20.65C142.739 20.702 142.358 20.728 141.994 20.728C141.214 20.728 140.46 20.6847 139.732 20.598C139.732 20.3553 139.697 20.208 139.628 20.156C139.559 20.104 139.42 20.078 139.212 20.078C139.143 18.3967 139.108 15.4327 139.108 11.186V8.04C139.108 5.128 139.082 3.022 139.03 1.722C140.347 1.358 141.699 1.176 143.086 1.176C144.525 1.176 145.877 1.41867 147.142 1.904C148.425 2.372 149.482 3.1 150.314 4.088C151.146 5.076 151.605 6.298 151.692 7.754V7.78ZM150.912 7.234C150.808 5.22333 150.002 3.75867 148.494 2.84C146.986 1.904 145.175 1.436 143.06 1.436C141.829 1.436 140.573 1.60067 139.29 1.93C139.359 3.87133 139.394 6.948 139.394 11.16V15.736C139.394 17.192 139.42 18.5613 139.472 19.844C139.94 19.9133 140.607 19.948 141.474 19.948C142.618 19.948 143.398 19.8787 143.814 19.74L143.892 19.688C143.84 18.0067 143.814 16.412 143.814 14.904V13.89C143.814 13.5607 143.805 13.318 143.788 13.162C144.1 13.214 144.412 13.24 144.724 13.24C145.695 13.24 146.657 12.9887 147.61 12.486C148.581 11.9833 149.369 11.2987 149.976 10.432C150.6 9.56533 150.912 8.62933 150.912 7.624V7.234ZM147.168 7.65C147.168 8.41267 146.873 8.898 146.284 9.106C145.712 9.314 144.941 9.42667 143.97 9.444L143.398 9.47H143.32C143.181 9.03667 143.112 8.326 143.112 7.338C143.112 6.52333 143.103 5.934 143.086 5.57C143.19 5.466 143.554 5.414 144.178 5.414C145.045 5.414 145.773 5.65667 146.362 6.142C146.622 6.298 146.821 6.51467 146.96 6.792C147.099 7.052 147.168 7.338 147.168 7.65ZM144.698 6.194C144.369 6.194 144.091 6.22867 143.866 6.298C143.883 6.558 143.892 6.93067 143.892 7.416V8.17V8.612C143.892 8.872 143.909 9.06267 143.944 9.184H144.074C144.906 9.184 145.582 9.08867 146.102 8.898C146.639 8.69 146.908 8.26533 146.908 7.624C146.908 7.12133 146.683 6.75733 146.232 6.532C145.781 6.30667 145.27 6.194 144.698 6.194ZM155.984 7.26C156.209 7.29467 156.348 7.32933 156.4 7.364C157.388 7.052 158.333 6.896 159.234 6.896C159.667 6.896 160.04 6.922 160.352 6.974C160.664 7.00867 160.82 7.04333 160.82 7.078V7.468C161.167 7.52 161.34 7.56333 161.34 7.598L161.314 9.808C161.297 10.1027 161.288 10.484 161.288 10.952C161.288 11.2293 161.314 11.758 161.366 12.538L160.768 12.33L160.794 12.356L160.482 12.252L160.508 12.278C159.815 12.1047 159.347 12.0007 159.104 11.966C158.879 11.9313 158.679 11.914 158.506 11.914C158.333 11.914 158.211 11.914 158.142 11.914C157.553 11.914 157.111 12.0353 156.816 12.278C156.539 12.5033 156.4 12.9193 156.4 13.526C156.469 15.658 156.504 17.9287 156.504 20.338V20.65C155.949 20.806 155.438 20.884 154.97 20.884C154.693 20.884 154.485 20.8753 154.346 20.858L153.566 20.832H153.254C152.994 20.832 152.743 20.8493 152.5 20.884V20.312L151.98 20.364L151.954 15.45C151.919 13.266 151.902 11.6107 151.902 10.484C151.902 9.56533 151.919 8.326 151.954 6.766C152.37 6.818 152.76 6.844 153.124 6.844C153.263 6.844 153.488 6.82667 153.8 6.792C154.129 6.74 154.571 6.714 155.126 6.714C155.698 6.714 155.984 6.818 155.984 7.026V7.26ZM155.724 7.026C155.724 6.99133 155.62 6.974 155.412 6.974C154.84 6.974 154.355 7 153.956 7.052C153.557 7.08667 153.28 7.104 153.124 7.104H152.812C152.587 7.104 152.387 7.08667 152.214 7.052C152.179 7.58933 152.162 8.378 152.162 9.418V11.004C152.162 12.0613 152.179 13.5953 152.214 15.606L152.24 20.078C152.448 20.0607 152.734 20.052 153.098 20.052L154.502 20.078C154.918 20.078 155.325 20.026 155.724 19.922V19.818C155.724 18.8993 155.707 17.712 155.672 16.256C155.637 14.8 155.62 13.6647 155.62 12.85C155.62 12.2087 155.785 11.7667 156.114 11.524C156.461 11.264 156.963 11.134 157.622 11.134C157.726 11.134 157.873 11.134 158.064 11.134C158.272 11.1167 158.506 11.134 158.766 11.186C159.043 11.2207 159.381 11.29 159.78 11.394C159.867 11.4287 159.953 11.4633 160.04 11.498C160.144 11.5153 160.239 11.5413 160.326 11.576L160.56 11.654C160.543 11.4633 160.534 11.186 160.534 10.822V9.86L160.56 7.078C160.56 7.04333 160.378 7.026 160.014 7.026C159.355 7.026 158.575 7.12133 157.674 7.312C156.79 7.48533 156.149 7.68467 155.75 7.91C155.75 7.78867 155.741 7.702 155.724 7.65C155.724 7.598 155.724 7.55467 155.724 7.52V7.026ZM161.76 8.04C162.02 7.48533 162.532 7.06933 163.294 6.792C164.074 6.51467 164.95 6.376 165.92 6.376C166.059 6.39333 166.38 6.402 166.882 6.402L167.506 6.376C168.165 6.376 168.806 6.48 169.43 6.688C170.054 6.896 170.574 7.19933 170.99 7.598H170.964C171.016 7.66733 171.094 7.76267 171.198 7.884C171.302 7.988 171.398 8.066 171.484 8.118L171.458 8.092C171.926 8.404 172.238 9.028 172.394 9.964C172.568 10.9 172.654 12.0613 172.654 13.448C172.654 14.6787 172.576 15.9527 172.42 17.27C172.264 18.5873 172.048 19.402 171.77 19.714C171.406 20.234 170.912 20.5893 170.288 20.78C169.664 20.9707 168.936 21.066 168.104 21.066C167.22 21.066 166.501 21.04 165.946 20.988C165.409 20.936 164.872 20.7887 164.334 20.546C163.814 20.3207 163.312 19.9567 162.826 19.454L162.592 19.22C162.055 18.7173 161.691 18.076 161.5 17.296C161.31 16.4987 161.214 15.5713 161.214 14.514V13.578L161.24 12.694C161.24 12.486 161.232 12.2867 161.214 12.096C161.197 11.9053 161.188 11.732 161.188 11.576C161.188 10.8307 161.206 10.2673 161.24 9.886C161.275 9.50467 161.405 9.04533 161.63 8.508H161.604C161.622 8.404 161.639 8.3 161.656 8.196C161.691 8.092 161.726 8.02267 161.76 7.988V8.014L161.734 8.092L161.76 8.04ZM161.474 12.642V14.566C161.474 16.0913 161.726 17.3567 162.228 18.362C162.748 19.35 163.676 19.9567 165.01 20.182L166.232 20.208C166.822 20.2427 167.281 20.26 167.61 20.26C168.425 20.26 169.118 20.1733 169.69 20C170.262 19.8267 170.713 19.506 171.042 19.038C171.337 18.7433 171.528 18.0847 171.614 17.062C171.718 16.0393 171.805 14.6613 171.874 12.928C171.874 12.772 171.857 12.2173 171.822 11.264C171.788 10.2933 171.684 9.522 171.51 8.95C171.354 8.36067 171.12 7.97067 170.808 7.78C170.028 7.01733 168.893 6.636 167.402 6.636L166.414 6.662C166.189 6.662 166.016 6.65333 165.894 6.636C165.01 6.636 164.196 6.766 163.45 7.026C162.705 7.286 162.22 7.65867 161.994 8.144C161.804 8.82 161.665 9.418 161.578 9.938C161.492 10.458 161.448 10.9953 161.448 11.55L161.474 12.642ZM166.804 10.562C168.018 10.562 168.624 11.4633 168.624 13.266C168.624 14.0113 168.59 14.6093 168.52 15.06C168.451 15.4933 168.269 15.8487 167.974 16.126C167.68 16.4033 167.229 16.542 166.622 16.542C166.102 16.542 165.678 16.4293 165.348 16.204C165.019 15.9787 164.854 15.6147 164.854 15.112C164.872 14.8867 164.88 14.488 164.88 13.916C164.88 13.1187 164.898 12.5033 164.932 12.07C164.984 11.6193 165.088 11.3333 165.244 11.212C165.591 10.7787 166.111 10.562 166.804 10.562ZM165.92 11.94C165.782 12.0267 165.695 12.4253 165.66 13.136C165.643 13.8293 165.634 14.67 165.634 15.658C165.634 15.9353 165.721 16.1087 165.894 16.178C166.068 16.2473 166.31 16.282 166.622 16.282C167.68 16.282 168.208 15.918 168.208 15.19C168.312 14.254 168.364 13.578 168.364 13.162C168.364 12.59 168.295 12.148 168.156 11.836C168.035 11.524 167.74 11.368 167.272 11.368C167.168 11.368 166.978 11.3853 166.7 11.42H166.726C166.397 11.5067 166.146 11.6627 165.972 11.888L165.92 11.94ZM177.029 1.592H177.549L177.575 2.996C177.609 4.00133 177.627 4.75533 177.627 5.258C177.436 5.55267 177.037 5.7 176.431 5.7L175.651 5.674C175.235 5.63933 174.862 5.622 174.533 5.622C174.169 5.622 173.883 5.63067 173.675 5.648V5.102L173.155 5.128C173.155 4.79867 173.137 4.30467 173.103 3.646C173.068 2.84867 173.051 2.14667 173.051 1.54V0.994L177.029 1.072V1.592ZM173.311 1.67C173.311 2.20733 173.328 2.84 173.363 3.568C173.397 4.15733 173.415 4.582 173.415 4.842H173.857C174.099 4.842 174.463 4.85933 174.949 4.894L175.859 4.92C176.413 4.92 176.743 4.83333 176.847 4.66C176.847 4.10533 176.829 3.34267 176.795 2.372C176.777 2.06 176.769 1.71333 176.769 1.332L173.311 1.254V1.67ZM173.207 6.792C173.501 6.844 173.77 6.87 174.013 6.87C174.203 6.87 174.411 6.86133 174.637 6.844C174.862 6.80933 175.027 6.792 175.131 6.792C175.495 6.74 175.85 6.714 176.197 6.714L176.587 6.688C176.725 6.688 176.838 6.73133 176.925 6.818C177.011 6.88733 177.072 7.03467 177.107 7.26L177.575 7.286C177.644 7.91 177.679 8.612 177.679 9.392L177.653 11.238C177.635 11.602 177.627 12.1133 177.627 12.772C177.627 13.2053 177.635 13.5 177.653 13.656V17.296C177.653 18.4227 177.627 19.4367 177.575 20.338C177.523 21.2393 177.419 22.1667 177.263 23.12C176.881 24.0387 176.101 24.6887 174.923 25.07C173.761 25.4687 172.427 25.668 170.919 25.668L170.269 25.694C170.061 25.694 169.896 25.6507 169.775 25.564C169.653 25.4947 169.575 25.356 169.541 25.148C169.125 25.148 168.917 24.6887 168.917 23.77C168.917 23.3367 168.951 22.7733 169.021 22.08C169.073 21.6987 169.099 21.3607 169.099 21.066C169.237 21.0833 169.48 21.092 169.827 21.092C170.52 21.092 171.179 21.0227 171.803 20.884C172.427 20.7453 172.86 20.52 173.103 20.208C173.12 19.48 173.129 18.2753 173.129 16.594C173.129 13.6993 173.155 11.68 173.207 10.536V6.792ZM173.467 10.562C173.415 11.4633 173.389 13.0667 173.389 15.372V17.946C173.389 19.038 173.38 19.8267 173.363 20.312C173.12 20.6933 172.661 20.962 171.985 21.118C171.309 21.2913 170.615 21.378 169.905 21.378C169.662 21.378 169.48 21.3693 169.359 21.352C169.341 21.4733 169.307 21.7507 169.255 22.184C169.185 22.6173 169.151 23.042 169.151 23.458C169.151 24.082 169.22 24.55 169.359 24.862C169.584 24.8793 169.931 24.888 170.399 24.888C171.872 24.888 173.163 24.7147 174.273 24.368C175.399 24.0213 176.136 23.4233 176.483 22.574C176.76 20.806 176.899 18.83 176.899 16.646C176.899 15.7273 176.89 15.034 176.873 14.566L176.847 12.2C176.847 11.5067 176.855 10.9693 176.873 10.588L176.899 8.742C176.899 8.066 176.873 7.48533 176.821 7C176.699 6.98267 176.535 6.974 176.327 6.974C176.101 6.974 175.746 6.99133 175.261 7.026C174.862 7.078 174.455 7.104 174.039 7.104C173.779 7.104 173.588 7.09533 173.467 7.078V10.562ZM182.621 14.748C182.621 15.1987 182.647 15.5713 182.699 15.866C182.768 16.1433 182.898 16.4467 183.089 16.776V16.828C183.314 16.9493 183.592 17.01 183.921 17.01C184.285 17.01 184.588 16.8453 184.831 16.516C185.074 16.1693 185.195 15.658 185.195 14.982V14.722C185.576 14.7567 185.862 14.774 186.053 14.774L186.963 14.748C187.154 14.7307 187.448 14.722 187.847 14.722C188.142 14.722 188.532 14.7653 189.017 14.852L188.991 15.294L189.537 15.372C189.537 17.244 189.329 18.5873 188.913 19.402C188.514 20.2167 187.994 20.702 187.353 20.858C186.729 21.0313 185.767 21.118 184.467 21.118C183.427 21.118 182.595 21.04 181.971 20.884C181.364 20.7453 180.844 20.416 180.411 19.896C179.614 19.2373 179.024 18.2927 178.643 17.062C178.262 15.8313 178.071 14.4967 178.071 13.058C178.071 11.3767 178.27 9.99867 178.669 8.924C179.033 8.092 179.666 7.45933 180.567 7.026C181.468 6.57533 182.474 6.35 183.583 6.35C184.918 6.35 186.036 6.636 186.937 7.208C187.856 7.78 188.532 8.55133 188.965 9.522C189.416 10.4753 189.641 11.524 189.641 12.668C189.641 12.772 189.615 13.214 189.563 13.994C189.234 14.0807 188.358 14.1587 186.937 14.228C185.533 14.2973 184.285 14.332 183.193 14.332C182.933 14.332 182.742 14.3233 182.621 14.306V14.748ZM181.841 13.474C182.049 13.526 182.647 13.552 183.635 13.552C184.588 13.552 185.62 13.526 186.729 13.474C187.838 13.4047 188.532 13.3353 188.809 13.266C188.844 12.746 188.861 12.3733 188.861 12.148C188.861 10.4147 188.471 9.06267 187.691 8.092C186.928 7.104 185.559 6.61 183.583 6.61C182.543 6.61 181.581 6.82667 180.697 7.26C179.83 7.676 179.232 8.25667 178.903 9.002C178.504 10.0767 178.305 11.5153 178.305 13.318C178.305 15.1207 178.608 16.6807 179.215 17.998C179.822 19.3153 180.766 20.0693 182.049 20.26L183.193 20.286C183.782 20.3207 184.242 20.338 184.571 20.338C185.386 20.338 186.079 20.2513 186.651 20.078C187.24 19.9047 187.7 19.584 188.029 19.116C188.254 18.9253 188.41 18.5267 188.497 17.92C188.584 17.296 188.67 16.3427 188.757 15.06C188.497 15.008 188.159 14.982 187.743 14.982L186.729 15.008C186.521 15.0253 186.235 15.034 185.871 15.034C185.663 15.034 185.533 15.0253 185.481 15.008V15.216C185.481 15.892 185.325 16.4033 185.013 16.75C184.718 17.0967 184.354 17.27 183.921 17.27C182.586 17.27 181.893 16.1607 181.841 13.942V13.474ZM186.001 11.42C186.001 11.472 185.94 11.498 185.819 11.498C185.732 11.498 185.559 11.4893 185.299 11.472C185.039 11.4547 184.727 11.446 184.363 11.446L182.673 11.472C182.344 11.472 182.127 11.4547 182.023 11.42C181.919 11.3853 181.867 11.3073 181.867 11.186C181.867 9.85133 182.604 9.184 184.077 9.184C184.406 9.184 184.71 9.27067 184.987 9.444C185.299 9.6 185.542 9.834 185.715 10.146C185.906 10.458 186.001 10.7873 186.001 11.134V11.42ZM185.377 10.172C185.152 10.0333 184.892 9.964 184.597 9.964C183.99 9.964 183.548 10.068 183.271 10.276C183.011 10.484 182.829 10.796 182.725 11.212L183.219 11.186H184.363L185.481 11.212L185.741 11.238V11.134C185.741 10.7353 185.628 10.4233 185.403 10.198L185.377 10.172ZM195.606 6.896C196.178 6.87867 197.062 6.82667 198.258 6.74L198.908 6.688C199.047 6.896 199.142 7.078 199.194 7.234L199.428 7.208C199.671 7.50267 199.792 7.91 199.792 8.43C199.792 8.62067 199.775 8.90667 199.74 9.288C199.706 9.66933 199.688 9.964 199.688 10.172C199.688 10.3627 199.714 10.6313 199.766 10.978H195.684C195.684 13.1447 195.693 14.7393 195.71 15.762C196.04 15.918 196.456 16.0393 196.958 16.126C197.461 16.1953 197.972 16.23 198.492 16.23C198.822 16.23 199.056 16.2213 199.194 16.204L199.22 16.646V16.75C199.428 16.75 199.593 16.7413 199.714 16.724C199.714 17.0187 199.74 17.348 199.792 17.712C199.862 18.2667 199.896 18.7347 199.896 19.116C199.896 19.7573 199.81 20.312 199.636 20.78C199.411 20.7973 199.004 20.806 198.414 20.806C196.768 20.806 195.32 20.5633 194.072 20.078C192.842 19.5927 192.001 18.8127 191.55 17.738C191.377 16.75 191.264 15.8053 191.212 14.904C191.16 14.0027 191.134 12.9367 191.134 11.706V11.082L189.782 11.056V10.536H189.262L189.34 6.844C189.808 6.86133 190.424 6.87 191.186 6.87C191.186 6.26333 191.178 5.804 191.16 5.492L191.134 3.958C191.134 3.16067 191.169 2.476 191.238 1.904C191.62 1.86933 191.906 1.852 192.096 1.852C192.356 1.852 192.712 1.86933 193.162 1.904C193.509 1.956 193.864 1.982 194.228 1.982H194.566C194.792 1.982 194.965 1.96467 195.086 1.93V2.502C195.19 2.502 195.364 2.48467 195.606 2.45V6.896ZM194.826 2.216C194.705 2.23333 194.506 2.242 194.228 2.242C193.795 2.242 193.396 2.216 193.032 2.164C192.547 2.12933 192.192 2.112 191.966 2.112C191.758 2.112 191.594 2.12067 191.472 2.138C191.42 2.62333 191.394 3.22133 191.394 3.932L191.42 5.674C191.438 6.02067 191.446 6.506 191.446 7.13H190.562C190.146 7.13 189.826 7.12133 189.6 7.104L189.522 10.276H190.51C190.909 10.276 191.204 10.2673 191.394 10.25V11.706C191.394 12.9193 191.42 13.9767 191.472 14.878C191.524 15.7793 191.637 16.724 191.81 17.712C192.157 18.5613 192.885 19.1593 193.994 19.506C195.104 19.8527 196.404 20.026 197.894 20.026C198.362 20.026 198.709 20.0173 198.934 20C199.056 19.6187 199.116 19.1507 199.116 18.596C199.116 18.128 199.056 17.426 198.934 16.49C198.813 16.5073 198.631 16.516 198.388 16.516C197.66 16.516 196.967 16.438 196.308 16.282C195.65 16.1087 195.19 15.8313 194.93 15.45C194.913 14.9127 194.904 14.0807 194.904 12.954V10.198H198.934C198.917 10.146 198.908 10.0073 198.908 9.782C198.908 9.60867 198.926 9.314 198.96 8.898C198.995 8.482 199.012 8.16133 199.012 7.936C199.012 7.45067 198.934 7.12133 198.778 6.948L197.66 7.026L194.852 7.156L194.826 5.7V2.216ZM200.227 8.04C200.487 7.48533 200.998 7.06933 201.761 6.792C202.541 6.51467 203.416 6.376 204.387 6.376C204.526 6.39333 204.846 6.402 205.349 6.402L205.973 6.376C206.632 6.376 207.273 6.48 207.897 6.688C208.521 6.896 209.041 7.19933 209.457 7.598H209.431C209.483 7.66733 209.561 7.76267 209.665 7.884C209.769 7.988 209.864 8.066 209.951 8.118L209.925 8.092C210.393 8.404 210.705 9.028 210.861 9.964C211.034 10.9 211.121 12.0613 211.121 13.448C211.121 14.6787 211.043 15.9527 210.887 17.27C210.731 18.5873 210.514 19.402 210.237 19.714C209.873 20.234 209.379 20.5893 208.755 20.78C208.131 20.9707 207.403 21.066 206.571 21.066C205.687 21.066 204.968 21.04 204.413 20.988C203.876 20.936 203.338 20.7887 202.801 20.546C202.281 20.3207 201.778 19.9567 201.293 19.454L201.059 19.22C200.522 18.7173 200.158 18.076 199.967 17.296C199.776 16.4987 199.681 15.5713 199.681 14.514V13.578L199.707 12.694C199.707 12.486 199.698 12.2867 199.681 12.096C199.664 11.9053 199.655 11.732 199.655 11.576C199.655 10.8307 199.672 10.2673 199.707 9.886C199.742 9.50467 199.872 9.04533 200.097 8.508H200.071C200.088 8.404 200.106 8.3 200.123 8.196C200.158 8.092 200.192 8.02267 200.227 7.988V8.014L200.201 8.092L200.227 8.04ZM199.941 12.642V14.566C199.941 16.0913 200.192 17.3567 200.695 18.362C201.215 19.35 202.142 19.9567 203.477 20.182L204.699 20.208C205.288 20.2427 205.748 20.26 206.077 20.26C206.892 20.26 207.585 20.1733 208.157 20C208.729 19.8267 209.18 19.506 209.509 19.038C209.804 18.7433 209.994 18.0847 210.081 17.062C210.185 16.0393 210.272 14.6613 210.341 12.928C210.341 12.772 210.324 12.2173 210.289 11.264C210.254 10.2933 210.15 9.522 209.977 8.95C209.821 8.36067 209.587 7.97067 209.275 7.78C208.495 7.01733 207.36 6.636 205.869 6.636L204.881 6.662C204.656 6.662 204.482 6.65333 204.361 6.636C203.477 6.636 202.662 6.766 201.917 7.026C201.172 7.286 200.686 7.65867 200.461 8.144C200.27 8.82 200.132 9.418 200.045 9.938C199.958 10.458 199.915 10.9953 199.915 11.55L199.941 12.642ZM205.271 10.562C206.484 10.562 207.091 11.4633 207.091 13.266C207.091 14.0113 207.056 14.6093 206.987 15.06C206.918 15.4933 206.736 15.8487 206.441 16.126C206.146 16.4033 205.696 16.542 205.089 16.542C204.569 16.542 204.144 16.4293 203.815 16.204C203.486 15.9787 203.321 15.6147 203.321 15.112C203.338 14.8867 203.347 14.488 203.347 13.916C203.347 13.1187 203.364 12.5033 203.399 12.07C203.451 11.6193 203.555 11.3333 203.711 11.212C204.058 10.7787 204.578 10.562 205.271 10.562ZM204.387 11.94C204.248 12.0267 204.162 12.4253 204.127 13.136C204.11 13.8293 204.101 14.67 204.101 15.658C204.101 15.9353 204.188 16.1087 204.361 16.178C204.534 16.2473 204.777 16.282 205.089 16.282C206.146 16.282 206.675 15.918 206.675 15.19C206.779 14.254 206.831 13.578 206.831 13.162C206.831 12.59 206.762 12.148 206.623 11.836C206.502 11.524 206.207 11.368 205.739 11.368C205.635 11.368 205.444 11.3853 205.167 11.42H205.193C204.864 11.5067 204.612 11.6627 204.439 11.888L204.387 11.94ZM222.853 11.784C222.247 11.888 221.579 11.94 220.851 11.94C220.245 11.94 219.551 11.8707 218.771 11.732L218.797 11.524C218.797 11.42 218.754 11.3507 218.667 11.316C218.581 11.264 218.494 11.238 218.407 11.238C218.321 11.2207 218.269 11.212 218.251 11.212L218.277 11.004C218.277 10.7267 218.191 10.536 218.017 10.432C217.844 10.3107 217.619 10.224 217.341 10.172C217.029 10.2587 216.787 10.3887 216.613 10.562C216.44 10.7353 216.353 10.926 216.353 11.134C216.353 11.4633 216.527 11.6973 216.873 11.836L216.821 11.81C218.763 12.122 220.262 12.6247 221.319 13.318C222.377 14.0113 222.905 15.112 222.905 16.62C222.905 18.2147 222.385 19.376 221.345 20.104C220.305 20.832 218.936 21.196 217.237 21.196C216.024 21.196 214.941 20.962 213.987 20.494C213.034 20.0433 212.289 19.428 211.751 18.648C211.231 17.8507 210.971 16.984 210.971 16.048V15.684C211.509 15.6147 212.098 15.58 212.739 15.58L214.091 15.606C214.369 15.6233 214.776 15.632 215.313 15.632C215.313 15.7707 215.357 15.944 215.443 16.152H215.833C215.833 16.7587 216.223 17.062 217.003 17.062C217.714 17.062 218.069 16.7153 218.069 16.022C218.069 15.762 217.931 15.58 217.653 15.476C217.393 15.3547 216.969 15.2333 216.379 15.112C215.634 14.9733 215.062 14.8173 214.663 14.644H214.689C213.632 14.28 212.791 13.6907 212.167 12.876C211.543 12.044 211.231 11.186 211.231 10.302C211.231 9.48733 211.491 8.716 212.011 7.988C212.549 7.26 213.251 6.766 214.117 6.506C214.707 6.33267 215.608 6.246 216.821 6.246C217.983 6.246 218.936 6.33267 219.681 6.506C220.427 6.67933 221.033 7.06067 221.501 7.65C222.541 8.49933 223.061 9.79067 223.061 11.524L222.853 11.784ZM220.019 6.818C219.083 6.61 218.017 6.506 216.821 6.506C213.268 6.506 211.491 7.77133 211.491 10.302C211.491 11.082 211.725 11.8013 212.193 12.46C212.661 13.1013 213.346 13.578 214.247 13.89C214.663 14.0807 215.322 14.2627 216.223 14.436C216.969 14.6093 217.506 14.7827 217.835 14.956C218.165 15.1293 218.329 15.424 218.329 15.84C218.329 16.36 218.217 16.7413 217.991 16.984C217.766 17.2093 217.437 17.322 217.003 17.322C216.518 17.322 216.085 17.192 215.703 16.932C215.322 16.672 215.114 16.3253 215.079 15.892L212.089 15.866C211.691 15.866 211.405 15.8833 211.231 15.918V16.048C211.231 17.3827 211.734 18.4487 212.739 19.246C213.745 20.026 215.071 20.416 216.717 20.416C218.295 20.416 219.586 20.0953 220.591 19.454C221.597 18.7953 222.099 17.6773 222.099 16.1C222.099 15.1987 221.891 14.4793 221.475 13.942C221.059 13.4047 220.479 13.006 219.733 12.746C219.005 12.486 218.026 12.2607 216.795 12.07C216.397 11.9313 216.093 11.732 215.885 11.472C215.677 11.212 215.573 10.9347 215.573 10.64C215.573 10.3453 215.686 10.068 215.911 9.808C216.154 9.53067 216.483 9.392 216.899 9.392C217.298 9.392 217.679 9.53933 218.043 9.834C218.407 10.1287 218.589 10.4493 218.589 10.796C218.589 10.9 218.581 10.9693 218.563 11.004C219.101 11.108 219.69 11.16 220.331 11.16C221.042 11.16 221.692 11.108 222.281 11.004C222.281 10.016 222.099 9.158 221.735 8.43C221.371 7.68467 220.799 7.14733 220.019 6.818Z" fill="black"/>
</svg>
