<svg width="70" height="73" viewBox="0 0 70 73" fill="none" xmlns="http://www.w3.org/2000/svg">
<line x1="9.65967" y1="7.66663" x2="9.65967" y2="73" stroke="#F9F2F2" stroke-width="2"/>
<line x1="62.3403" y1="7.66663" x2="62.3403" y2="73" stroke="#F9F2F2" stroke-width="2"/>
<line y1="62.9884" x2="70" y2="62.9884" stroke="#F9F2F2" stroke-width="2"/>
<line y1="15.6782" x2="70" y2="15.6782" stroke="#F9F2F2" stroke-width="2"/>
<path d="M34.0894 24.15C34.6894 24.15 35.1727 24.3333 35.5394 24.7C35.906 25.0333 36.0894 25.4 36.0894 25.8C36.0894 26.2 35.9894 26.4333 35.7894 26.5C32.456 26.5 29.8727 27.75 28.0394 30.25C26.206 32.75 25.2894 36.3167 25.2894 40.95C25.2894 45.55 26.2894 49.45 28.2894 52.65C30.2894 55.8167 33.0727 57.4 36.6394 57.4C40.206 57.4 43.0394 55.7167 45.1394 52.35C47.2727 48.9833 48.3394 44.75 48.3394 39.65C48.3394 34.5167 47.0894 30.2667 44.5894 26.9C42.1227 23.5 38.8894 21.8 34.8894 21.8C30.8894 21.8 27.4727 22.95 24.6394 25.25C21.8394 27.5167 20.3727 30.2333 20.2394 33.4C20.106 33.6667 19.7894 33.8 19.2894 33.8C18.4227 33.7333 17.9894 33.1667 17.9894 32.1C17.9894 31.0333 18.206 29.95 18.6394 28.85C19.0727 27.7167 19.7727 26.5833 20.7394 25.45C21.706 24.3167 22.8394 23.3 24.1394 22.4C25.4394 21.4667 27.056 20.7167 28.9894 20.15C30.9227 19.5833 33.006 19.3 35.2394 19.3C40.606 19.3 44.8894 21.2333 48.0894 25.1C51.3227 28.9333 52.9394 33.8 52.9394 39.7C52.9394 45.6 51.456 50.3667 48.4894 54C45.556 57.6 41.606 59.4 36.6394 59.4C31.706 59.4 27.806 57.6833 24.9394 54.25C22.106 50.8167 20.6894 46.1833 20.6894 40.35C20.6894 37.6167 21.1227 35.1667 21.9894 33C22.8894 30.8333 24.0394 29.1333 25.4394 27.9C28.2727 25.4 31.156 24.15 34.0894 24.15Z" fill="#F9F2F2"/>
</svg>
